<?xml version="1.0" encoding="iso-8859-1"?>
<!-- Generator: Adobe Illustrator 28.0.0, SVG Export Plug-In . SVG Version: 6.00 Build 0)  -->
<svg version="1.1" id="Layer_1" xmlns="http://www.w3.org/2000/svg" xmlns:xlink="http://www.w3.org/1999/xlink" x="0px" y="0px"
	 viewBox="0 0 400 35" style="enable-background:new 0 0 400 35;" xml:space="preserve">
<path style="fill:#FFFFFF;stroke:#FFFFFF;stroke-miterlimit:10;" d="M18.553,3.297H7.813c-0.048,0-0.074,0.057-0.042,0.093
	l3.732,4.272c0.009,0.01,0.014,0.023,0.014,0.037v12.968c0,0.031,0.025,0.056,0.056,0.056h4.389c0.031,0,0.056,0.025,0.056,0.056
	v13.697c0,0.031,0.025,0.056,0.056,0.056h4.958c0.031,0,0.056-0.025,0.056-0.056V20.78c0-0.031,0.025-0.056,0.056-0.056h4.387
	c0.031,0,0.056-0.025,0.056-0.056V7.701c0-0.014,0.005-0.027,0.014-0.037l3.734-4.274c0.032-0.036,0.006-0.093-0.042-0.093H18.553z"
	/>
<path style="fill:#FFFFFF;stroke:#FFFFFF;stroke-miterlimit:10;" d="M46.468,3.297h-10.74c-0.048,0-0.074,0.057-0.042,0.093
	l3.732,4.272c0.009,0.01,0.014,0.023,0.014,0.037v12.968c0,0.031,0.025,0.056,0.056,0.056h4.389c0.031,0,0.056,0.025,0.056,0.056
	v13.697c0,0.031,0.025,0.056,0.056,0.056h4.958c0.031,0,0.056-0.025,0.056-0.056V20.78c0-0.031,0.025-0.056,0.056-0.056h4.387
	c0.031,0,0.056-0.025,0.056-0.056V7.701c0-0.014,0.005-0.027,0.014-0.037l3.734-4.274c0.032-0.036,0.006-0.093-0.042-0.093H46.468z"
	/>
<path style="fill:#FFFFFF;stroke:#FFFFFF;stroke-miterlimit:10;" d="M74.383,3.297h-10.74c-0.048,0-0.074,0.057-0.042,0.093
	l3.732,4.272c0.009,0.01,0.014,0.023,0.014,0.037v12.968c0,0.031,0.025,0.056,0.056,0.056h4.389c0.031,0,0.056,0.025,0.056,0.056
	v13.697c0,0.031,0.025,0.056,0.056,0.056h4.958c0.031,0,0.056-0.025,0.056-0.056V20.78c0-0.031,0.025-0.056,0.056-0.056h4.387
	c0.031,0,0.056-0.025,0.056-0.056V7.701c0-0.014,0.005-0.027,0.014-0.037l3.734-4.274c0.032-0.036,0.006-0.093-0.042-0.093H74.383z"
	/>
<path style="fill:#FFFFFF;stroke:#FFFFFF;stroke-miterlimit:10;" d="M102.298,3.297h-10.74c-0.048,0-0.074,0.057-0.042,0.093
	l3.732,4.272c0.009,0.01,0.014,0.023,0.014,0.037v12.968c0,0.031,0.025,0.056,0.056,0.056h4.389c0.031,0,0.056,0.025,0.056,0.056
	v13.697c0,0.031,0.025,0.056,0.056,0.056h4.958c0.031,0,0.056-0.025,0.056-0.056V20.78c0-0.031,0.025-0.056,0.056-0.056h4.387
	c0.031,0,0.056-0.025,0.056-0.056V7.701c0-0.014,0.005-0.027,0.014-0.037l3.734-4.274c0.032-0.036,0.006-0.093-0.042-0.093H102.298z
	"/>
<path style="fill:#FFFFFF;stroke:#FFFFFF;stroke-miterlimit:10;" d="M130.213,3.297h-10.74c-0.048,0-0.074,0.057-0.042,0.093
	l3.732,4.272c0.009,0.01,0.014,0.023,0.014,0.037v12.968c0,0.031,0.025,0.056,0.056,0.056h4.389c0.031,0,0.056,0.025,0.056,0.056
	v13.697c0,0.031,0.025,0.056,0.056,0.056h4.958c0.031,0,0.056-0.025,0.056-0.056V20.78c0-0.031,0.025-0.056,0.056-0.056h4.387
	c0.031,0,0.056-0.025,0.056-0.056V7.701c0-0.014,0.005-0.027,0.014-0.037l3.734-4.274c0.032-0.036,0.006-0.093-0.042-0.093H130.213z
	"/>
<path style="fill:#FFFFFF;stroke:#FFFFFF;stroke-miterlimit:10;" d="M158.128,3.297h-10.74c-0.048,0-0.074,0.057-0.042,0.093
	l3.732,4.272c0.009,0.01,0.014,0.023,0.014,0.037v12.968c0,0.031,0.025,0.056,0.056,0.056h4.389c0.031,0,0.056,0.025,0.056,0.056
	v13.697c0,0.031,0.025,0.056,0.056,0.056h4.958c0.031,0,0.056-0.025,0.056-0.056V20.78c0-0.031,0.025-0.056,0.056-0.056h4.387
	c0.031,0,0.056-0.025,0.056-0.056V7.701c0-0.014,0.005-0.027,0.014-0.037l3.734-4.274c0.032-0.036,0.006-0.093-0.042-0.093H158.128z
	"/>
<path style="fill:#FFFFFF;stroke:#FFFFFF;stroke-miterlimit:10;" d="M186.043,3.297h-10.74c-0.048,0-0.074,0.057-0.042,0.093
	l3.732,4.272c0.009,0.01,0.014,0.023,0.014,0.037v12.968c0,0.031,0.025,0.056,0.056,0.056h4.389c0.031,0,0.056,0.025,0.056,0.056
	v13.697c0,0.031,0.025,0.056,0.056,0.056h4.958c0.031,0,0.056-0.025,0.056-0.056V20.78c0-0.031,0.025-0.056,0.056-0.056h4.387
	c0.031,0,0.056-0.025,0.056-0.056V7.701c0-0.014,0.005-0.027,0.014-0.037l3.734-4.274c0.032-0.036,0.006-0.093-0.042-0.093H186.043z
	"/>
<path style="fill:#FFFFFF;stroke:#FFFFFF;stroke-miterlimit:10;" d="M213.957,3.297h-10.74c-0.048,0-0.074,0.057-0.042,0.093
	l3.732,4.272c0.009,0.01,0.014,0.023,0.014,0.037v12.968c0,0.031,0.025,0.056,0.056,0.056h4.389c0.031,0,0.056,0.025,0.056,0.056
	v13.697c0,0.031,0.025,0.056,0.056,0.056h4.958c0.031,0,0.056-0.025,0.056-0.056V20.78c0-0.031,0.025-0.056,0.056-0.056h4.387
	c0.031,0,0.056-0.025,0.056-0.056V7.701c0-0.014,0.005-0.027,0.014-0.037l3.734-4.274c0.032-0.036,0.006-0.093-0.042-0.093H213.957z
	"/>
<path style="fill:#FFFFFF;stroke:#FFFFFF;stroke-miterlimit:10;" d="M241.872,3.297h-10.74c-0.048,0-0.074,0.057-0.042,0.093
	l3.732,4.272c0.009,0.01,0.014,0.023,0.014,0.037v12.968c0,0.031,0.025,0.056,0.056,0.056h4.389c0.031,0,0.056,0.025,0.056,0.056
	v13.697c0,0.031,0.025,0.056,0.056,0.056h4.958c0.031,0,0.056-0.025,0.056-0.056V20.78c0-0.031,0.025-0.056,0.056-0.056h4.387
	c0.031,0,0.056-0.025,0.056-0.056V7.701c0-0.014,0.005-0.027,0.014-0.037l3.734-4.274c0.032-0.036,0.006-0.093-0.042-0.093H241.872z
	"/>
<path style="fill:#FFFFFF;stroke:#FFFFFF;stroke-miterlimit:10;" d="M269.787,3.297h-10.74c-0.048,0-0.074,0.057-0.042,0.093
	l3.732,4.272c0.009,0.01,0.014,0.023,0.014,0.037v12.968c0,0.031,0.025,0.056,0.056,0.056h4.389c0.031,0,0.056,0.025,0.056,0.056
	v13.697c0,0.031,0.025,0.056,0.056,0.056h4.958c0.031,0,0.056-0.025,0.056-0.056V20.78c0-0.031,0.025-0.056,0.056-0.056h4.387
	c0.031,0,0.056-0.025,0.056-0.056V7.701c0-0.014,0.005-0.027,0.014-0.037l3.734-4.274c0.032-0.036,0.006-0.093-0.042-0.093H269.787z
	"/>
<path style="fill:#FFFFFF;stroke:#FFFFFF;stroke-miterlimit:10;" d="M297.702,3.297h-10.74c-0.048,0-0.074,0.057-0.042,0.093
	l3.732,4.272c0.009,0.01,0.014,0.023,0.014,0.037v12.968c0,0.031,0.025,0.056,0.056,0.056h4.389c0.031,0,0.056,0.025,0.056,0.056
	v13.697c0,0.031,0.025,0.056,0.056,0.056h4.958c0.031,0,0.056-0.025,0.056-0.056V20.78c0-0.031,0.025-0.056,0.056-0.056h4.387
	c0.031,0,0.056-0.025,0.056-0.056V7.701c0-0.014,0.005-0.027,0.014-0.037l3.734-4.274c0.032-0.036,0.006-0.093-0.042-0.093H297.702z
	"/>
<path style="fill:#FFFFFF;stroke:#FFFFFF;stroke-miterlimit:10;" d="M325.617,3.297h-10.74c-0.048,0-0.074,0.057-0.042,0.093
	l3.732,4.272c0.009,0.01,0.014,0.023,0.014,0.037v12.968c0,0.031,0.025,0.056,0.056,0.056h4.389c0.031,0,0.056,0.025,0.056,0.056
	v13.697c0,0.031,0.025,0.056,0.056,0.056h4.958c0.031,0,0.056-0.025,0.056-0.056V20.78c0-0.031,0.025-0.056,0.056-0.056h4.387
	c0.031,0,0.056-0.025,0.056-0.056V7.701c0-0.014,0.005-0.027,0.014-0.037L336.4,3.39c0.032-0.036,0.006-0.093-0.042-0.093H325.617z"
	/>
<path style="fill:#FFFFFF;stroke:#FFFFFF;stroke-miterlimit:10;" d="M353.532,3.297h-10.74c-0.048,0-0.074,0.057-0.042,0.093
	l3.732,4.272c0.009,0.01,0.014,0.023,0.014,0.037v12.968c0,0.031,0.025,0.056,0.056,0.056h4.389c0.031,0,0.056,0.025,0.056,0.056
	v13.697c0,0.031,0.025,0.056,0.056,0.056h4.958c0.031,0,0.056-0.025,0.056-0.056V20.78c0-0.031,0.025-0.056,0.056-0.056h4.387
	c0.031,0,0.056-0.025,0.056-0.056V7.701c0-0.014,0.005-0.027,0.014-0.037l3.734-4.274c0.032-0.036,0.006-0.093-0.042-0.093H353.532z
	"/>
<path style="fill:#FFFFFF;stroke:#FFFFFF;stroke-miterlimit:10;" d="M381.447,3.297h-10.74c-0.048,0-0.074,0.057-0.042,0.093
	l3.732,4.272c0.009,0.01,0.014,0.023,0.014,0.037v12.968c0,0.031,0.025,0.056,0.056,0.056h4.389c0.031,0,0.056,0.025,0.056,0.056
	v13.697c0,0.031,0.025,0.056,0.056,0.056h4.958c0.031,0,0.056-0.025,0.056-0.056V20.78c0-0.031,0.025-0.056,0.056-0.056h4.387
	c0.031,0,0.056-0.025,0.056-0.056V7.701c0-0.014,0.005-0.027,0.014-0.037l3.734-4.274c0.032-0.036,0.006-0.093-0.042-0.093H381.447z
	"/>
</svg>
