<?xml version="1.0" encoding="iso-8859-1"?>
<!-- Generator: Adobe Illustrator 28.0.0, SVG Export Plug-In . SVG Version: 6.00 Build 0)  -->
<svg version="1.1" id="Layer_1" xmlns="http://www.w3.org/2000/svg" xmlns:xlink="http://www.w3.org/1999/xlink" x="0px" y="0px"
	 viewBox="0 0 400 35" style="enable-background:new 0 0 400 35;" xml:space="preserve">
<circle style="fill:#FFFFFF;" cx="9.553" cy="3.426" r="4.149"/>
<circle style="fill:#FFFFFF;" cx="20.609" cy="13.351" r="4.149"/>
<circle style="fill:#FFFFFF;" cx="62.482" cy="9.202" r="4.149"/>
<circle style="fill:#FFFFFF;" cx="89.928" cy="23.372" r="4.149"/>
<circle style="fill:#FFFFFF;" cx="121.716" cy="6.394" r="4.149"/>
<circle style="fill:#FFFFFF;" cx="155.801" cy="24.777" r="4.149"/>
<circle style="fill:#FFFFFF;" cx="173.928" cy="7.574" r="4.149"/>
<circle style="fill:#FFFFFF;" cx="205.843" cy="24.777" r="4.149"/>
<circle style="fill:#FFFFFF;" cx="248.609" cy="25.67" r="4.149"/>
<circle style="fill:#FFFFFF;" cx="222.822" cy="8.947" r="4.149"/>
<circle style="fill:#FFFFFF;" cx="280.013" cy="7.574" r="4.149"/>
<circle style="fill:#FFFFFF;" cx="300.822" cy="24.777" r="4.149"/>
<circle style="fill:#FFFFFF;" cx="323.928" cy="9.202" r="4.149"/>
<circle style="fill:#FFFFFF;" cx="363.758" cy="21.521" r="4.149"/>
<circle style="fill:#FFFFFF;" cx="390.704" cy="14.691" r="13.052"/>
<circle style="fill:#FFFFFF;" cx="341.311" cy="21.521" r="13.052"/>
<circle style="fill:#FFFFFF;" cx="274.716" cy="19.223" r="13.052"/>
<circle style="fill:#FFFFFF;" cx="173.928" cy="20.628" r="13.052"/>
<circle style="fill:#FFFFFF;" cx="109.141" cy="14.691" r="13.052"/>
<circle style="fill:#FFFFFF;" cx="136.923" cy="21.521" r="9.462"/>
<circle style="fill:#FFFFFF;" cx="76.109" cy="17.372" r="9.462"/>
<circle style="fill:#FFFFFF;" cx="39.168" cy="21.521" r="9.462"/>
<circle style="fill:#FFFFFF;" cx="49.741" cy="10.543" r="9.462"/>
<circle style="fill:#FFFFFF;" cx="198.375" cy="14.691" r="9.462"/>
<circle style="fill:#FFFFFF;" cx="319.779" cy="26.835" r="9.462"/>
<circle style="fill:#FFFFFF;" cx="369.072" cy="33.68" r="9.462"/>
<circle style="fill:#FFFFFF;" cx="221.529" cy="32.276" r="9.462"/>
<circle style="fill:#FFFFFF;" cx="248.609" cy="10.543" r="9.462"/>
<circle style="fill:#FFFFFF;" cx="66.63" cy="32.276" r="13.052"/>
<circle style="fill:#FFFFFF;" cx="7.557" cy="29.819" r="13.052"/>
<path style="fill:#FFFFFF;" d="M24.758,11.787"/>
</svg>
